<?xml version="1.0" encoding="UTF-8" ?>
<!DOCTYPE svg PUBLIC "-//W3C//DTD SVG 1.1//EN" "http://www.w3.org/Graphics/SVG/1.1/DTD/svg11.dtd">
<svg width="387pt" height="371pt" viewBox="0 0 387 371" version="1.1" xmlns="http://www.w3.org/2000/svg">
<g id="#444444ff">
<path fill="#444444" opacity="1.00" d=" M 186.84 0.00 L 193.16 0.00 C 201.72 0.92 210.02 4.70 215.86 11.10 C 256.90 55.71 297.90 100.34 338.94 144.95 C 342.19 148.41 345.28 152.01 348.36 155.62 C 357.19 165.90 362.10 179.43 362.01 192.97 C 361.99 229.99 362.01 267.01 362.00 304.02 C 361.96 310.93 362.36 317.93 360.88 324.74 C 357.90 339.80 348.56 353.43 335.66 361.74 C 327.30 367.22 317.49 370.30 307.55 371.00 L 73.51 371.00 C 61.36 370.21 49.46 365.68 40.08 357.88 C 27.07 347.30 19.07 330.82 19.00 314.02 C 18.99 273.66 19.02 233.30 18.99 192.94 C 18.93 181.57 22.36 170.22 28.71 160.79 C 31.52 156.94 34.27 153.04 37.37 149.42 C 79.69 103.40 122.00 57.35 164.33 11.33 C 170.10 4.89 178.33 1.09 186.84 0.00 M 184.33 18.50 C 179.88 19.92 176.83 23.60 173.81 26.93 C 133.44 70.85 93.07 114.78 52.68 158.68 C 44.51 167.69 36.71 178.36 36.57 191.07 C 36.41 231.71 36.55 272.35 36.50 313.00 C 36.41 323.63 40.77 334.20 48.33 341.68 C 55.82 349.23 66.38 353.60 77.02 353.50 C 152.66 353.50 228.29 353.49 303.92 353.50 C 314.56 353.61 325.14 349.26 332.63 341.71 C 340.23 334.21 344.60 323.61 344.50 312.94 C 344.50 272.97 344.50 233.01 344.50 193.04 C 344.59 182.87 340.59 172.79 333.62 165.40 C 319.58 149.46 304.93 134.07 290.64 118.35 C 262.55 87.79 234.44 57.24 206.35 26.67 C 204.09 24.23 201.96 21.54 199.01 19.88 C 194.63 17.29 189.11 16.80 184.33 18.50 Z" />
<path fill="#444444" opacity="1.00" d=" M 177.52 128.75 C 196.67 126.12 216.61 129.42 233.79 138.30 C 255.08 149.15 271.94 168.35 279.88 190.89 C 287.98 213.54 287.03 239.27 277.18 261.23 C 267.93 282.16 250.81 299.46 229.98 308.94 C 207.96 319.10 182.00 320.27 159.13 312.21 C 136.87 304.49 117.80 288.09 106.77 267.27 C 96.77 248.67 93.40 226.67 97.15 205.90 C 100.79 185.07 111.78 165.66 127.63 151.69 C 141.52 139.34 159.11 131.23 177.52 128.75 M 185.40 145.56 C 171.20 146.49 157.30 151.45 145.73 159.73 C 132.53 169.10 122.38 182.70 117.24 198.06 C 111.55 214.77 111.88 233.43 118.17 249.93 C 124.09 265.70 135.35 279.39 149.66 288.28 C 163.98 297.27 181.32 301.33 198.13 299.60 C 212.97 298.16 227.33 292.26 238.92 282.89 C 251.23 273.01 260.41 259.29 264.77 244.12 C 269.49 227.96 268.67 210.26 262.50 194.60 C 256.55 179.29 245.54 166.03 231.64 157.29 C 217.98 148.63 201.53 144.46 185.40 145.56 Z" />
<path fill="#444444" opacity="1.00" d=" M 183.14 163.22 C 196.85 161.52 211.13 164.68 222.75 172.17 C 235.75 180.43 245.36 193.87 248.82 208.88 C 252.19 223.04 250.21 238.41 243.23 251.20 C 236.69 263.33 225.84 273.07 213.05 278.23 C 198.50 284.18 181.60 284.06 167.14 277.89 C 154.27 272.48 143.44 262.40 137.11 249.95 C 129.86 235.88 128.59 218.90 133.58 203.89 C 140.47 182.29 160.59 165.73 183.14 163.22 Z" />
</g>
</svg>
