<?xml version="1.0" encoding="utf-8"?>
<!-- Generator: Adobe Illustrator 22.1.0, SVG Export Plug-In . SVG Version: 6.00 Build 0)  -->
<svg version="1.1" id="Layer_1" xmlns="http://www.w3.org/2000/svg" xmlns:xlink="http://www.w3.org/1999/xlink" x="0px" y="0px"
	 viewBox="0 0 387 371" style="enable-background:new 0 0 387 371;" xml:space="preserve">
<style type="text/css">
	.st0{fill:#444444;}
</style>
<g id="_x23_444444ff">
	<path class="st0" d="M250.4,3.5c7.8,0.1,16,0.9,22.7,5.2c12.1,7.7,21.1,18.6,26.1,31.9c5.2,13.8,0.1,29.6-4.6,42.9
		c-11.3,31.8-22.6,63.7-33.9,95.5c-6.4,18-19.3,50-13.9,60.3c3.9,7.4,10.6,29.2,9.4,42.8c-2.8,32.2-18.1,64.3-47.4,77.9
		c-29.3,13.6-65.9,8.6-91.3-11.3c-18.1-14.2-30.6-35.7-33.1-58.7c-2.4-22.9,5.6-46.9,21.9-63.2c10.6-10.5,24.3-17.7,34.4-28.8
		c14.5-16,44.8-123.9,58-155c3.8-9,8.3-18.2,15-25.5c3.2-3.5,7-6.5,11.3-8.5c4.3-1.9,9.2-4.2,13.7-5.2C243,2.8,246.4,3.6,250.4,3.5
		 M241.4,24.4c-6.6,1.3-12.5,5-16.8,10.1c-8.1,10.7-11.1,24-15.5,36.4c-14.9,44.3-30,88.6-44.9,133c-1.3,3.9-2.1,8.2-4.7,11.5
		c-3.5,4.5-9.3,5.3-14.2,7.4c-5.4,2.3-10.5,5.4-15.1,9c-9.1,7.2-16.4,16.7-20.6,27.5c-7.6,19.4-5.2,42.4,6.3,59.7
		c4.6,6.9,10.5,13,17.2,17.9c9.6,7,20.2,11.3,32,12.3c11,0.6,22.5,0.1,32.8-4.5c10.3-4.6,19.7-11.5,26.6-20.5
		c6.6-7.7,11.9-17,12.8-27.3c0.5-6,1.8-12,0.9-18c-0.8-5.9-1.3-11.9-3.6-17.5c-2.5-5.9-5.4-11.7-9-17c-1.5-2.5-3.7-5.2-3-8.3
		c0.8-3.9,2.5-7.5,3.7-11.2c16.9-49.5,33.6-99.2,50.4-148.7c3.9-8.9,4.8-18.8,3.6-28.4c-0.9-7.2-6-13.1-11.3-17.8
		C261.3,23.9,250.8,22.2,241.4,24.4z"/>
	<path class="st0" d="M223.4,114.3c4.8-1.7,9.8,2.3,11.9,6.4c1.5,6-1.6,11.7-3.4,17.2c-11.5,33.3-22.6,66.7-33.9,100
		c-1.4,4.4-4.2,8.8-3.5,13.6c1.8,3.9,5.4,6.6,7.9,10.1c4.1,5.3,5.9,12,7.6,18.4c1.5,5.1-0.5,10.1-1.9,15
		c-3.6,12.1-13.7,22.4-26.3,24.8c-6.2,1.1-12.6,0.9-18.8,0c-6.3-0.8-11.3-4.9-16.1-8.7c-7.4-5.8-12.2-14.7-13-24.1
		c-2.4-16.8,9.4-33.3,24.8-39c4.4-1.4,9.2-0.9,13.4-2.9c4.7-2.9,4.9-8.9,6.6-13.6c12.2-36,24.4-72,36.6-108
		C216.5,119.4,219,115.3,223.4,114.3z"/>
</g>
</svg>
