<?xml version="1.0" encoding="utf-8"?>
<!-- Generator: Adobe Illustrator 22.1.0, SVG Export Plug-In . SVG Version: 6.00 Build 0)  -->
<svg version="1.1" id="Layer_1" xmlns="http://www.w3.org/2000/svg" xmlns:xlink="http://www.w3.org/1999/xlink" x="0px" y="0px"
	 viewBox="0 0 387 371" style="enable-background:new 0 0 387 371;" xml:space="preserve">
<style type="text/css">
	.st0{fill:#444444;}
</style>
<g id="_x23_444444fe">
	<path class="st0" d="M186.8,0h8.3c3.7,5.5,8,10.7,11.3,16.6c9.5,16.5,18.6,33.3,28.4,49.7c7.4,13.8,15.8,27,23.1,40.8
		c3.6,6.9,8.1,13.4,11.8,20.3c15.3,28.8,35.9,55.5,44,87.7c6,23.9,4.8,49.5-3.5,72.6c-13.4,37.8-47.1,71.8-86.9,80.6
		c-3.1,0.7-6,1.7-9,2.7H164c-6.9-2.8-14.4-3.8-21.3-6.8c-9.3-3.3-17.4-9-25.6-14.3c-18-11.7-33.8-32.7-42.9-51.9
		c-10.2-21.6-12.8-46.4-9-70c3.4-20.7,11.6-40.4,22.9-58c12.1-18.8,21.8-39.2,33.7-58.3c8.1-14.5,16.2-29.1,24.5-43.6
		c6-9.8,11.3-20,17.1-30C170.7,25.3,177.3,11.7,186.8,0 M183.9,42.9c-3,6.1-6.6,12-10.2,17.7c-9.3,16.4-18.2,33-27.8,49.2
		c-10.5,17.6-19.8,36-30.1,53.7c-9.9,17-21.3,33.5-27.2,52.5c-6.8,22.1-5.5,46.5,2.9,68c10.2,26,29.8,46,54.1,59.2
		c7.7,4.2,16.3,6.1,24.7,8.3c5.8,1.4,11.8,1,17.7,1.1c23.4-0.2,43.2-5.1,62.5-18.9c17.6-12.6,31.6-30.3,39.2-50.6
		c7.3-19.6,8.3-41.3,3.8-61.7c-4.7-20.9-16.5-39.4-27.6-57.4c-5.5-9.2-10.8-18.5-16-27.9c-7.1-11.6-13.1-24-20.5-35.5
		c-9.8-16.9-18.9-34.3-29.1-50.9C197,44.2,195,37.8,190,33.5C187.6,36.3,185.5,39.5,183.9,42.9z"/>
	<path class="st0" d="M189.3,144.5c4-0.4,7.8,2.8,8.4,6.7c1.4,6.9-0.3,13.9,0.2,20.8c0.3,5.5-0.9,11.1,0.7,16.4
		c0.8,2.8,4.1,2.8,6.4,2.9c9.7,0.1,19.4-0.1,29.1,0c4-0.1,8.6,1.5,10.1,5.6c2.5,5.5-2.9,11.6-8.5,11.6c-10.6,0.4-21.1-0.1-31.7,0.1
		c-1.8,0.2-4.3,0.3-5.3,2.1c-1.3,3.6-0.9,7.6-0.8,11.3c0.5,7,0.5,14,0.4,21c-0.3,3.5-0.3,7.2-1.9,10.3c-3.3,3.1-9.3,3.1-12.6,0
		c-3.5-7.7-0.9-16.2-1.8-24.3c-0.7-6.1,1.5-12.4-0.6-18.3c-1.4-2.1-4.2-1.9-6.3-2.1c-10.2-0.1-20.5,0.3-30.7-0.1
		c-4.8-0.1-9.5-4.4-9-9.3c0.4-4.4,4.5-7.7,8.9-7.8c10.6-0.4,21.3,0.2,31.9-0.1c2.1-0.1,4.8-0.5,5.4-2.9c1.8-6,0.1-12.3,0.4-18.4
		c0.2-6.3-0.6-12.6,0.5-18.8C182.8,147.7,185.8,144.9,189.3,144.5z"/>
	<path class="st0" d="M142.3,275.2c4.5-1,9.1-0.5,13.7-0.5c26,0,52,0,78,0c3.4,0,7.4,1,9,4.3c2.3,3.3,1.3,8-1.9,10.3
		c-3,1.9-6.7,2.2-10.2,2.2c-27.3-0.1-54.7-0.1-82,0c-4.4-0.2-10.3-0.4-12.5-5.1C134,282,137.4,275.9,142.3,275.2z"/>
</g>
</svg>
