<?xml version="1.0" encoding="utf-8"?>
<!-- Generator: Adobe Illustrator 22.1.0, SVG Export Plug-In . SVG Version: 6.00 Build 0)  -->
<svg version="1.1" id="Layer_1" xmlns="http://www.w3.org/2000/svg" xmlns:xlink="http://www.w3.org/1999/xlink" x="0px" y="0px"
	 viewBox="0 0 387 371" style="enable-background:new 0 0 387 371;" xml:space="preserve">
<style type="text/css">
	.st0{fill:#444444;}
</style>
<g id="_x23_444444fe">
	<path class="st0" d="M120.8,18.8c1-5.4,5-10.1,10.4-11.6c3.2-1.2,6.5,0.2,9.6,0.9c43.6,12.5,87.3,24.8,130.9,37.3
		c8.9,2.5,24,3.2,28.3,13.2c1.5,3.6,0.8,7.6,0,11.4c-2.9,12.4-7.9,24.1-11.3,36.3c-4.4,15.5-8.5,31.2-12.8,46.7
		c-5.5,18.6-10.2,37.4-16,55.9c-1.2,4.5-5.7,6.5-9.5,8.3c-13.3,6.1-26.8,11.8-40.2,17.9c-3.5,1.6-7.5,2.9-10.3,5.8
		c-2.2,3.4-2.5,7.6-3.6,11.4c-4.7,16.6-9.5,33.1-14.2,49.7c-1.3,4.2-2.3,8.7-4.7,12.4c-3,5-10.8,4.5-12.6,10.5
		c-2.2,6.4-3.5,13-5.6,19.4c-2.2,7.1-3.4,15.4-9.9,20c-2.5,1.9-5.9,2.6-9,1.5c-6.8-2.3-13.9-3.8-20.8-6.1
		c-7.3-2.3-15.2-3.4-22.1-7.1c-4.2-3.6-5.5-9.9-4-15.1c1.8-7.3,4.2-14.5,6.1-21.8c1.1-4.1,3.1-8.1,3.2-12.4c-1.1-4.3-5-7.3-6.2-11.6
		c-0.7-3.2,0.8-6.3,1.6-9.3c4.8-16.6,9.4-33.4,14.1-50c1.2-5.1,3.4-10,4.1-15.2c0.3-2-1-3.8-1.9-5.4c-9.5-13.2-18.6-26.8-27.8-40.1
		c-1.9-2.9-4-5.8-4.9-9.2c-0.7-3.5,0.4-7,1.3-10.3c4-12,6.7-24.3,10.5-36.3C102.2,83.2,112.3,51.2,120.8,18.8 M135.1,27.1
		c-1.9,3.9-2.2,8.4-3.5,12.5c-9.9,34.5-19.8,69-29.4,103.6c-1.3,5-3.5,9.8-3.8,15c-0.3,2.6,1.2,4.8,2.7,6.8
		c9,12.1,17.1,24.9,25.9,37.1c2.7,3.9,5.6,8.1,6.2,12.9c-0.1,4.7-2.1,9.2-3.3,13.7c-3.8,13.6-7.9,27.1-11.4,40.7
		c-1.2,5.1-3.9,9.9-3.9,15.3c1.4,4.9,7.3,7.8,6.8,13.4c-0.9,6.5-3.8,12.6-5.2,19c-1.6,6.7-4.5,13-5.4,19.9c-0.2,3.8,4.1,4.7,6.9,5.6
		c7.7,2,15.2,5.1,23.2,5.5c3.7-8.1,5.2-16.9,7.8-25.3c1.8-5.5,1.6-12,5.4-16.7c2.6-3.5,7.4-3.5,11.1-5.2c1.8-0.5,1.9-2.7,2.6-4.2
		c5.3-19.3,11-38.5,16.2-57.8c1.3-4,2.6-8.4,5.8-11.3c3.2-2.5,7.1-3.6,10.8-5.3c13.7-6.5,27.7-12.2,41.4-18.4
		c4.9-1.9,5.7-7.6,6.9-12.1c11.1-39.2,22-78.4,33.5-117.5c0.5-2.6,1.1-5.6,0-8.1c-1.3-0.8-2.8-1.3-4.3-1.7
		c-44.9-12.8-89.8-25.4-134.7-38.4C140.5,25.5,136.7,24.3,135.1,27.1z"/>
	<path class="st0" d="M150.5,43.5c5.5-2.1,11.1,1,16.4,2.4c26.3,7.3,52.5,15,78.7,22.4c6.5,1.6,14,3.1,18,9c2.9,4.3,1.3,9.7,0,14.2
		c-5.4,17.8-10.1,35.8-15.5,53.6c-1.3,5.1-6.2,8.3-11.1,9.2c-4.6,0.4-9-1.6-13.5-2.8c-26-7.3-51.9-14.7-77.8-22.2
		c-5.3-1.4-11.1-2.1-15.5-5.7c-4.2-3.7-7-9.8-4.9-15.4c5.8-18.5,10.2-37.4,16.2-55.8C142.7,48.2,146.5,45.2,150.5,43.5 M154.1,59.1
		c-2.3,4.3-2.9,9.2-4.3,13.7c-2.7,8.7-4.6,17.7-7.5,26.4c-1,3.8-2.9,7.5-2.8,11.4c0.4,2.6,3.2,3.8,5.4,4.4
		c25.5,7.2,50.9,14.4,76.4,21.7c4.4,1.3,8.8,2.8,13.5,3.2c1-2.2,1.9-4.3,2.7-6.6c4.4-14.7,8.2-29.5,12.8-44.2c0.8-2.2,0.7-5.5-2-6.3
		c-8.8-3.2-18.1-5.1-27-7.9c-20.2-5.9-40.5-11.3-60.6-17.4C158.4,57.2,155.2,56.7,154.1,59.1z"/>
	<path class="st0" d="M136.4,140.6c5.6-0.7,11.6,0.3,16.1,3.9c5.7,4.4,10.4,11.1,10.2,18.6c0.3,8.4-4.8,16.6-12.1,20.6
		c-4.7,2.6-10.3,2.4-15.4,1.9c-12.7-1.9-21.7-16.1-18.1-28.4C119.8,148.6,127.5,141.6,136.4,140.6 M137.4,154.5
		c-6.8,1.8-9,12-3.1,16.1c4.5,2.5,11.3,1.4,13.9-3.4C150.9,160.8,144.5,152.2,137.4,154.5z"/>
	<path class="st0" d="M203.4,160.3c13.4-2.8,27.4,10.2,26.2,23.8c-0.8,11.6-11.8,21.7-23.6,20.5c-12.6-0.3-23.6-13-21.3-25.6
		c1.2-5.8,4.4-11.6,9.7-14.7C197.2,162.6,200.2,161.2,203.4,160.3 M205.5,173.6c-4,1.2-8.7,4.5-8,9.2c1.1,5,5.8,10,11.3,8.8
		c7.4-1,9.5-11.9,4-16.3C210.8,173.5,208,172.9,205.5,173.6z"/>
</g>
</svg>
