<?xml version="1.0" encoding="utf-8"?>
<!-- Generator: Adobe Illustrator 22.1.0, SVG Export Plug-In . SVG Version: 6.00 Build 0)  -->
<svg version="1.1" id="Layer_1" xmlns="http://www.w3.org/2000/svg" xmlns:xlink="http://www.w3.org/1999/xlink" x="0px" y="0px"
	 viewBox="0 0 387 371" style="enable-background:new 0 0 387 371;" xml:space="preserve">
<style type="text/css">
	.st0{fill:#444444;}
</style>
<g id="_x23_444444ff">
	<path class="st0" d="M307.3,0h14.3c3.5,4.6,9.7,4.9,13.9,8.6c6.8,5.4,11.6,12.8,14.8,20.7c0.7,5.1,0.8,10.3,0,15.4
		c-3,7.1-6.6,14.1-12.2,19.5c-13.9,14.4-28.4,28.3-42.3,42.8c-3.4,3.6-7.4,6.6-10.6,10.4c-1.6,1.9-3.4,4.6-1.7,7
		c4.5,7.1,12.2,11.4,16.9,18.3c2.2,3.4-1.1,7.1-3.4,9.5c-2.5,2.3-6,5.6-9.6,3.6c-6.1-3.4-9-10.6-15.1-14c-3.2-1.6-6,1.5-8.1,3.6
		c-16.8,18.2-34.6,35.4-52,53c-18.3,18.4-36.8,36.5-54.6,55.4c-9.6,9.1-17.9,20.1-30.2,25.8c-5.7,2.9-12,4.5-18.3,4.4
		c-4,0.2-8.3-0.5-12,1.4c-5.8,4.1-9.5,10.7-16.1,13.9c-7.6,4-17.4,1.1-22.5-5.6c-3.4-4.8-6.3-11.1-4-17c2.6-8,10.2-12.5,14.8-19.1
		c3.4-6,1.1-13.3,2.2-19.8c1.4-7.5,5-14.5,9.3-20.7c15.8-17.9,34.4-33,49.9-51.1c14.8-14.8,29.7-29.7,44.5-44.5
		c8.8-9.8,18.8-18.6,27.6-28.4c2.8-3.2,6.9-5.3,8.9-9.3c0.9-1.5-0.1-3.1-0.9-4.5c-3.5-5.7-10.3-8.7-13.2-14.8
		c-1.7-4.3,2.2-8,4.9-10.8c2.4-2.8,6.9-3.3,9.7-0.8c5.3,4.7,9.8,10.2,14.9,15.1c1.2,1,2.7,2.5,4.4,1.6c4.4-2.4,7.3-6.7,10.8-10.2
		c12.6-12.7,25.3-25.3,37.9-38.1c4.5-4.5,8.4-9.6,13.6-13.4C298,4.6,304,4.5,307.3,0 M220.4,93.3c-0.4,0.3-1.3,1-1.8,1.3
		c-12.8,13.6-26.2,26.5-39.2,39.7c-8.4,8.2-16.1,17.2-24.7,25.3c-15.3,14.4-30.4,29.8-44.9,45.1c-10.9,11.5-35.5,32-26.8,50.2
		c0.8,2,2.2,4.4,0.2,6.2c-5,5.7-10.7,10.7-15.5,16.5c-1.4,3.5-0.6,8.9,3.7,9.9c4.8,1.4,8.2-2.9,11.3-5.8c3.9-3.5,6.9-7.8,10.7-11.2
		c5.7-1.4,11.5,1.4,17.2,0.3c6-1.1,12-2.7,17.1-6.1c4.2-2.7,7.5-6.5,11-10c21.6-21.4,43-43,64.3-64.7c4.7-4,8.3-9.1,12.7-13.3
		c12.1-12.2,24.5-24.2,36.3-36.7c2.9-3.2,7.5-5.4,8.2-10c0-2.4-2.2-3.9-3.7-5.4c-5.5-4.8-10.2-10.5-15.6-15.4
		c-4.9-4.4-8.9-9.8-13.8-14.2C225.3,93.3,222.7,92,220.4,93.3z"/>
	<path class="st0" d="M159.3,173.1c9.8-1.2,19.8-0.1,29.7-0.5c3.3,0.3,7.4-0.9,10.1,1.7c1.5,2.8-0.7,5.4-2.7,7.2
		c-3.6,3.4-7.1,6.9-10.3,10.7c-3.7,4.3-8.1,8-11.8,12.2c-6,7-12.8,13.2-19.2,19.8c-7.3,7.1-14.1,14.6-21.8,21.2
		c-5.2,4.4-8.5,11.1-15.1,13.8c-6.3,2.6-13.8,3.8-20.2,0.7c-2.8-1.3-3.9-4.4-4.4-7.2c-1.1-8.3,0.1-17.6,6.3-23.7
		c14.9-15.1,30-30,44.9-45.1C149.4,180,153.5,175.1,159.3,173.1z"/>
	<path class="st0" d="M47.9,311.6c1.8-3.1,6.6-1.7,7.9,1.2c5.3,11,12.3,21.1,14.1,33.5c0.8,5.2,0.2,10.7-2.7,15.2
		c-1.9,2.9-4.6,5.2-7.5,7c-5,3.3-9.5,2.6-14.9,0.6c-3.6-1.4-6.7-3.9-8.8-7.1c-3.4-5.2-3.9-11.8-2.8-17.8
		C35.3,332.4,41.9,321.6,47.9,311.6z"/>
</g>
</svg>
