<?xml version="1.0" encoding="utf-8"?>
<!-- Generator: Adobe Illustrator 22.1.0, SVG Export Plug-In . SVG Version: 6.00 Build 0)  -->
<svg version="1.1" id="Layer_1" xmlns="http://www.w3.org/2000/svg" xmlns:xlink="http://www.w3.org/1999/xlink" x="0px" y="0px"
	 viewBox="0 0 200 200" style="enable-background:new 0 0 200 200;" xml:space="preserve">
<style type="text/css">
	.st0{opacity:0.5;}
</style>
<path class="st0" d="M178.7,42.5H21.3C12,42.5,4.5,35,4.5,25.7v0c0-9.2,7.6-16.8,16.8-16.8h157.5c9.2,0,16.8,7.6,16.8,16.8v0
	C195.5,35,188,42.5,178.7,42.5z"/>
<path class="st0" d="M178.7,116.8H21.3c-9.2,0-16.8-7.6-16.8-16.8v0c0-9.2,7.6-16.8,16.8-16.8h157.5c9.2,0,16.8,7.6,16.8,16.8v0
	C195.5,109.2,188,116.8,178.7,116.8z"/>
<path class="st0" d="M178.7,190H21.3c-9.2,0-16.8-7.6-16.8-16.8v0c0-9.2,7.6-16.8,16.8-16.8h157.5c9.2,0,16.8,7.6,16.8,16.8v0
	C195.5,182.4,188,190,178.7,190z"/>
</svg>
